# File produced by Open Asset Import Library (http://www.assimp.sf.net)
# (assimp v3.1.151580502)

mtllib keypad.mtl

# 28 vertex positions
v  0.125588 0.231607 -0.0158373
v  -0.126335 0.230571 -0.0140514
v  -0.126335 0.230571 0.014347
v  0.125588 0.231607 0.0125611
v  -0.128212 0.228688 -0.0140455
v  -0.128746 -0.228803 -0.0158494
v  -0.128746 -0.228803 0.0125489
v  -0.128212 0.228688 0.0143529
v  -0.126873 -0.230682 -0.0158568
v  0.127664 -0.23125 -0.0158601
v  0.127664 -0.23125 0.0125382
v  -0.126873 -0.230682 0.0125415
v  0.12953 -0.229379 -0.0158601
v  0.127472 0.22974 -0.0158506
v  0.127472 0.22974 0.0125478
v  0.12953 -0.229379 0.0125383
v  0.125581 0.229732 0.01443
v  -0.126279 0.228696 0.0162139
v  -0.103583 0.206757 0.0140862
v  0.103449 0.207597 0.0126381
v  -0.126871 -0.229048 0.0144236
v  -0.104013 -0.209204 0.0126331
v  0.127656 -0.229591 0.0144204
v  0.105107 -0.209664 0.0126304
v  -0.103583 0.206757 0.00277775
v  0.103449 0.207597 0.00132958
v  -0.104013 -0.209204 0.00132456
v  0.105107 -0.209664 0.0013219

# 51 UV coordinates
vt 0.497324 0.04191 0
vt 0.32915 0.0402207 0
vt 0.329216 0.0212642 0
vt 0.497368 0.0229533 0
vt 0.326647 0.0402082 0
vt 0.0212517 0.0402082 0
vt 0.0213266 0.0212516 0
vt 0.326712 0.0212515 0
vt 0.978736 0.0425536 0
vt 0.80882 0.0424524 0
vt 0.808842 0.0234957 0
vt 0.978748 0.0235971 0
vt 0.806316 0.0424495 0
vt 0.499827 0.0419247 0
vt 0.499872 0.022968 0
vt 0.806338 0.0234928 0
vt 0.19707 0.780262 0
vt 0.0289431 0.779571 0
vt 0.0440936 0.764925 0
vt 0.182297 0.765486 0
vt 0.0285519 0.474013 0
vt 0.0438101 0.48726 0
vt 0.198456 0.473651 0
vt 0.183404 0.486952 0
vt 0.443208 0.0716041 0
vt 0.305001 0.0738866 0
vt 0.304952 0.066338 0
vt 0.443108 0.0640561 0
vt 0.0273255 0.0738868 0
vt 0.027299 0.0663381 0
vt 0.86129 0.0640424 0
vt 0.72172 0.0668846 0
vt 0.721579 0.0593371 0
vt 0.861137 0.0564952 0
vt 0.246554 0.373397 0
vt 0.24627 0.09573 0
vt 0.385863 0.0954234 0
vt 0.384756 0.373957 0
vt 0.32922 0.0200126 0
vt 0.978748 0.0223454 0
vt 0.979999 0.0235977 0
vt 0.808843 0.022244 0
vt 0.497371 0.0217017 0
vt 0.0200747 0.0212516 0
vt 0.02 0.0402082 0
vt 0.326717 0.02 0
vt 0.0213312 0.02 0
vt 0.80634 0.0222412 0
vt 0.499874 0.0217164 0
vt 0.198333 0.780267 0
vt 0.197091 0.781514 0

# 59 vertex normals
vn -0.00411272 0.999992 1.86265e-07
vn -0.999999 0.00116676 7.14435e-20
vn -0.999999 0.00116527 7.13523e-20
vn -0.00223219 -0.999997 -1.86264e-07
vn -0.0022322 -0.999997 -1.86265e-07
vn 0.99999 0.00448525 2.74642e-19
vn 0.00706166 -0.00375062 0.999968
vn 0.00706166 -0.00375062 0.999968
vn 0.0462679 -0.0464972 0.997846
vn -0.036259 -0.0445751 0.998348
vn 0.00351965 -0.00373423 0.999987
vn 0.0417013 0.0443849 0.998144
vn 2.98023e-06 -0.00426769 0.999991
vn 2.98023e-06 -0.00426769 0.999991
vn -0.0388835 0.0458905 0.998189
vn 0.00376701 -2.98023e-06 0.999993
vn 0.00376701 -4.47035e-06 0.999993
vn 0.00405908 -0.999992 -1.86265e-07
vn 0.999999 -0.00103265 -6.32316e-20
vn 0.999999 -0.00103414 -6.33228e-20
vn 0.00220239 0.999998 1.86264e-07
vn 0.00220239 0.999998 6.12322e-17
vn -0.999992 -0.00397563 -2.43437e-19
vn -0.999992 -0.00397563 -2.43437e-19
vn 0.00348762 -0.00174791 0.999992
vn 0.00348762 -0.0017494 0.999992
vn 0.00348762 -0.00174791 0.999992
vn -0.570601 0.570785 0.590439
vn -0.570601 0.570785 0.590439
vn -0.602428 -0.602451 0.523577
vn -0.602428 -0.602451 0.523577
vn 0.600158 -0.598804 0.530324
vn 0.600158 -0.598804 0.530324
vn -0.708147 0.706065 1.85203e-07
vn -0.708147 0.706065 1.85203e-07
vn -0.708147 0.706065 1.85203e-07
vn 0.00211672 0.705784 0.708424
vn 0.00211672 0.705784 0.708424
vn 0.00211672 0.705784 0.708424
vn 0.704061 0.71014 4.34835e-17
vn 0.704061 0.71014 4.34835e-17
vn 0.704061 0.71014 4.34835e-17
vn -0.708305 -0.705907 -4.32243e-17
vn -0.708305 -0.705907 -4.32243e-17
vn -0.708305 -0.705907 -4.32243e-17
vn -0.700311 -0.00194187 0.713835
vn -0.700311 -0.00194187 0.713835
vn -0.700311 -0.00194187 0.713835
vn -0.700311 -0.00194187 0.713835
vn 0.707907 -0.706306 -4.32488e-17
vn 0.707907 -0.706306 -4.32488e-17
vn -0.00163363 -0.752631 0.658441
vn -0.00163363 -0.75263 0.658441
vn -0.00163363 -0.752631 0.658441
vn 0.70694 0.00316788 0.707267
vn 0.70694 0.00316788 0.707267
vn 0.70694 0.00316788 0.707267
vn 0.575382 0.576221 0.580436
vn 0.575382 0.576221 0.580436

# Mesh 'Keypad_low_Keypad_low_1001' with 46 faces
g Keypad_low_Keypad_low_1001
usemtl 1001
f  1/1/1 2/2/1 3/3/1
f  3/3/1 4/4/1 1/1/1
f  5/5/2 6/6/3 7/7/3
f  7/7/3 8/8/2 5/5/2
f  9/9/4 10/10/5 11/11/4
f  11/11/4 12/12/5 9/9/4
f  13/13/6 14/14/6 15/15/6
f  15/15/6 16/16/6 13/13/6
f  17/17/7 18/18/8 19/19/9
f  19/19/9 20/20/10 17/17/7
f  18/18/11 21/21/11 22/22/12
f  22/22/12 19/19/9 18/18/11
f  21/21/13 23/23/14 24/24/15
f  24/24/15 22/22/12 21/21/13
f  23/23/16 17/17/17 20/20/10
f  20/20/10 24/24/15 23/23/16
f  20/25/18 19/26/18 25/27/18
f  25/27/18 26/28/18 20/25/18
f  19/26/19 22/29/20 27/30/20
f  27/30/20 25/27/19 19/26/19
f  22/31/21 24/32/22 28/33/21
f  28/33/21 27/34/21 22/31/21
f  24/32/23 20/25/24 26/28/23
f  26/28/23 28/33/24 24/32/23
f  25/35/25 27/36/26 28/37/26
f  28/37/26 26/38/27 25/35/25
f  8/8/28 18/39/29 3/3/29
f  12/12/30 21/40/31 7/41/31
f  16/16/32 23/42/33 11/11/32
f  8/8/34 3/3/34 2/2/35
f  2/2/35 5/5/36 8/8/34
f  17/43/37 4/4/38 3/3/37
f  3/3/37 18/39/39 17/43/37
f  14/14/40 1/1/41 4/4/42
f  4/4/42 15/15/40 14/14/40
f  12/44/43 7/7/44 6/6/44
f  6/6/44 9/45/45 12/44/43
f  18/46/46 8/8/47 7/7/48
f  7/7/48 21/47/49 18/46/46
f  16/16/50 11/11/51 10/10/50
f  10/10/50 13/13/51 16/16/50
f  21/40/52 12/12/53 11/11/54
f  11/11/54 23/42/54 21/40/52
f  23/48/55 16/16/56 15/15/57
f  15/15/57 17/49/55 23/48/55
f  17/17/58 15/50/59 4/51/59

